<svg xmlns="http://www.w3.org/2000/svg"
    xmlns:xlink="http://www.w3.org/1999/xlink" clip-rule="evenodd" fill-rule="evenodd" height="118.5" image-rendering="optimizeQuality" shape-rendering="geometricPrecision" text-rendering="geometricPrecision" version="1.0" viewBox="0 0 506.69 118.5" width="506.69">
    <defs>
        <clipPath clip-rule="nonzero" id="a">
            <path d="M-0.09 61.92l22.77 0 0 23.51 -22.77 0 0 -23.51zm0 0z"/>
        </clipPath>
        <clipPath clip-rule="nonzero" id="b">
            <path d="M81.84 61.92l23.75 0 0 23.51 -23.75 0 0 -23.51zm0 0z"/>
        </clipPath>
        <clipPath clip-rule="nonzero" id="c">
            <path d="M-0.09 34.61l22.77 0 0 23.52 -22.77 0 0 -23.52zm0 0z"/>
        </clipPath>
        <clipPath clip-rule="nonzero" id="d">
            <path d="M81.84 34.61l23.75 0 0 23.52 -23.75 0 0 -23.52zm0 0z"/>
        </clipPath>
        <clipPath clip-rule="nonzero" id="e">
            <path d="M-0.09 7.31l22.77 0 0 23.52 -22.77 0 0 -23.52zm0 0z"/>
        </clipPath>
        <clipPath clip-rule="nonzero" id="f">
            <path d="M26.47 7.31l24.27 0 0 23.52 -24.27 0 0 -23.52zm0 0z"/>
        </clipPath>
        <clipPath clip-rule="nonzero" id="g">
            <path d="M54.54 7.31l23.51 0 0 23.52 -23.51 0 0 -23.52zm0 0z"/>
        </clipPath>
        <clipPath clip-rule="nonzero" id="h">
            <path d="M81.84 7.31l23.75 0 0 23.52 -23.75 0 0 -23.52zm0 0z"/>
        </clipPath>
    </defs>
    <g>
        <g>
            <path d="M491.46 118.96c-0.22,-0.24 -0.75,-2.18 -0.64,-2.26 0.02,-0.02 0.37,-0.2 0.79,-0.42 0.94,-0.49 2.53,-1.94 3.1,-2.89l0.46 -0.72 -2.57 -6.22c-1.41,-3.43 -2.6,-6.36 -2.66,-6.49 -0.09,-0.22 0.33,-0.28 1.65,-0.28 1.21,0 1.78,0.09 1.87,0.28 0.04,0.13 0.77,2.09 1.58,4.33 0.81,2.24 1.56,4.16 1.65,4.24 0.15,0.18 0.97,-1.93 2.51,-6.56l0.72 -2.2 3.04 0 -0.02 0.68c-0.05,0.77 -3.83,10.38 -5.23,13.26 -1.06,2.2 -2.84,4.22 -4.33,4.99 -1.21,0.59 -1.58,0.66 -1.91,0.24zm0 0z" fill="#51aa1b" fill-rule="nonzero"/>
            <path d="M364.65 113.62c-0.72,-0.18 -2.15,-1.28 -2.68,-2.05 -0.59,-0.88 -0.69,-2.68 -0.22,-3.83 0.75,-1.74 3.1,-2.99 6.35,-3.34l1.28 -0.13 -0.33 -0.79c-0.18,-0.42 -0.33,-0.81 -0.33,-0.83 0,-0.04 -0.31,-0.18 -0.68,-0.31 -0.96,-0.33 -2.13,-0.31 -3.41,0.09 -1.27,0.39 -1.69,0.28 -2.04,-0.46 -0.37,-0.81 -0.13,-1.3 0.81,-1.69 3.35,-1.45 6.97,-0.79 8.33,1.56 0.53,0.91 0.57,1.21 0.75,5.28 0.09,2.4 0.18,4.81 0.18,5.39l0.02 1.06 -1.36 -0.07c-1.25,-0.07 -1.38,-0.11 -1.45,-0.57 -0.04,-0.29 -0.15,-0.48 -0.22,-0.44 -1.85,0.99 -3.76,1.43 -4.99,1.15zm3.19 -2.95c0.88,-0.46 1.39,-1.34 1.49,-2.53l0.09 -1.21 -1.06 0c-1.23,0.02 -2.55,0.44 -3.19,1.02 -0.55,0.5 -0.57,2.06 -0.02,2.55 0.64,0.59 1.74,0.66 2.69,0.17zm0 0z" fill="#51aa1b" fill-rule="nonzero"/>
            <path d="M409.05 113.53c-1.06,-0.24 -1.98,-1.01 -2.35,-1.91 -0.22,-0.57 -0.37,-2.15 -0.48,-5.06l-0.15 -4.24 -1.94 0 0 -2.86 1.96 0 0.15 -1.1c0.18,-1.28 0.48,-1.54 1.91,-1.61l0.93 -0.04 0.07 1.39 0.06 1.37 3.5 0 0 2.86 -3.58 0 0.13 3.58c0.15,4.33 0.26,4.7 1.67,4.88 1.45,0.2 1.5,0.24 1.67,0.97 0.2,0.9 -0.2,1.49 -1.17,1.78 -0.93,0.24 -1.39,0.24 -2.38,0zm0 0z" fill="#51aa1b" fill-rule="nonzero"/>
            <path d="M480.54 113.35c-1.92,-0.91 -2.91,-2.69 -2.53,-4.62 0.44,-2.44 2.55,-3.83 6.66,-4.33 1.21,-0.15 1.37,-0.59 0.53,-1.56 -0.66,-0.77 -2.22,-0.95 -3.96,-0.44 -0.66,0.2 -1.36,0.29 -1.54,0.22 -0.5,-0.17 -0.94,-1.38 -0.66,-1.82 0.74,-1.19 5.5,-1.69 7.21,-0.75 0.49,0.24 1.15,0.75 1.48,1.1 1.07,1.15 1.1,1.19 1.36,9.37l0.11 3.01 -1.32 0c-1.14,0 -1.34,-0.06 -1.54,-0.5l-0.22 -0.5 -1.08 0.53c-1.45,0.72 -3.36,0.85 -4.5,0.31zm4.02 -2.84c0.79,-0.48 1.36,-1.61 1.36,-2.64l0 -0.94 -1.08 0c-2.22,0 -3.54,0.86 -3.54,2.29 0,1.12 0.2,1.43 1.01,1.65 0.75,0.22 1.54,0.11 2.24,-0.35zm0 0z" fill="#51aa1b" fill-rule="nonzero"/>
            <path d="M375.34 106.49l0.09 -7.04 2.97 0 0 0.66c0,0.37 0.02,0.66 0.06,0.66 0.02,0 0.64,-0.31 1.34,-0.66 2.66,-1.37 5.76,-0.55 6.97,1.8 0.53,1.04 0.84,4.33 0.86,8.82l0 2.79 -3.26 0 -0.09 -4.66c-0.11,-5.19 -0.24,-5.83 -1.5,-6.33 -0.84,-0.35 -2.31,-0.18 -2.91,0.37 -1.06,0.94 -1.17,1.47 -1.23,6.18l-0.09 4.44 -3.3 0 0.06 -7.04zm0 0z" fill="#51aa1b" fill-rule="nonzero"/>
            <path d="M393.87 113.18c-1.16,-0.42 -2.88,-2.11 -3.45,-3.39 -0.7,-1.54 -0.77,-4.38 -0.16,-6.03 0.6,-1.58 1.7,-2.83 3.17,-3.61 0.99,-0.53 1.36,-0.59 3.21,-0.59 1.76,0 2.24,0.09 3.04,0.5 2.33,1.26 3.63,3.52 3.63,6.43 -0.02,4.22 -2.53,6.82 -6.73,6.97 -1.21,0.04 -2.11,-0.05 -2.7,-0.29zm4.67 -2.97c1.89,-1.72 1.89,-5.7 0,-7.44 -0.79,-0.74 -2.57,-0.88 -3.65,-0.28 -2.42,1.34 -2.51,6.51 -0.13,8.01 0.99,0.61 2.97,0.46 3.78,-0.29zm0 0z" fill="#51aa1b" fill-rule="nonzero"/>
            <path d="M415.56 103.41l0 -10.12 3.08 0 0 3.74c0,2.07 0.02,3.74 0.06,3.74 0.02,0 0.64,-0.31 1.34,-0.66 2.7,-1.39 5.52,-0.62 6.77,1.85 0.48,0.97 0.81,4.44 0.84,9l0 2.57 -3.23 0 -0.16 -4.75c-0.09,-2.62 -0.24,-4.99 -0.35,-5.28 -0.46,-1.21 -2.55,-1.69 -3.8,-0.86 -1.21,0.79 -1.34,1.34 -1.43,6.33l-0.09 4.55 -3.03 0 0 -10.11zm0 0z" fill="#51aa1b" fill-rule="nonzero"/>
            <path d="M433.87 113.18c-1.28,-0.46 -2.8,-1.87 -3.45,-3.21 -0.48,-0.97 -0.57,-1.43 -0.57,-3.04 0,-2.57 0.44,-3.96 1.69,-5.3 3.28,-3.5 8.18,-2.86 10,1.3 0.26,0.57 0.48,1.71 0.55,2.7l0.13 1.74 -4.66 0c-5.17,0 -5.02,-0.04 -4.22,1.5 0.96,1.89 2.55,2.35 5.91,1.78 1.61,-0.29 1.78,-0.2 1.87,1.01 0.04,0.75 -0.04,0.88 -0.7,1.3 -1.01,0.59 -5.14,0.75 -6.55,0.22zm4.99 -9.08c-0.08,-0.33 -0.28,-0.81 -0.42,-1.06 -0.28,-0.55 -1.54,-1.16 -2.33,-1.16 -1.1,0 -2.57,1.21 -3.04,2.48 -0.13,0.35 0.11,0.37 2.93,0.37l3.06 0 -0.2 -0.64zm0 0z" fill="#51aa1b" fill-rule="nonzero"/>
            <path d="M444.36 106.49l0 -7.04 2.86 0 0 1.6 0.5 -0.44c0.75,-0.7 1.74,-1.12 2.97,-1.3l1.15 -0.15 0 3.32 -1.36 0.09c-1.12,0.09 -1.43,0.19 -1.85,0.68 -0.81,0.94 -0.96,1.98 -0.96,6.27l0 4 -3.3 0 0 -7.04zm0 0z" fill="#51aa1b" fill-rule="nonzero"/>
            <path d="M469.78 111.83c-0.29,-0.94 -0.97,-3.06 -1.48,-4.69l-0.92 -2.97 -1.52 4.57 -1.54 4.56 -2.75 0 -0.99 -3.24c-0.55,-1.8 -1.48,-4.73 -2.02,-6.55 -0.57,-1.81 -1.08,-3.48 -1.14,-3.67 -0.11,-0.35 0.06,-0.39 1.54,-0.39 1.37,0 1.67,0.06 1.76,0.39 0.07,0.2 0.57,2.16 1.15,4.33 0.55,2.18 1.1,4.09 1.19,4.27 0.18,0.33 0.11,0.5 1.98,-5.41l1.12 -3.58 2.57 0 0.66 2.04c0.37,1.1 1.03,3.19 1.47,4.62 0.42,1.41 0.81,2.57 0.86,2.57 0.04,0 0.59,-1.89 1.25,-4.2 0.64,-2.33 1.32,-4.42 1.52,-4.66 0.31,-0.37 0.5,-0.42 1.74,-0.26 0.88,0.11 1.34,0.24 1.28,0.42 -0.04,0.13 -1.08,3.24 -2.27,6.91l-2.15 6.64 -2.72 0 -0.57 -1.69zm0 0z" fill="#51aa1b" fill-rule="nonzero"/>
            <path d="M168.85 86.26c-5.63,-0.7 -10.75,-2.26 -16.49,-5 -3.96,-1.87 -9.3,-5.07 -9.15,-5.47 0.15,-0.39 9.57,-16.43 9.77,-16.63 0.09,-0.07 0.92,0.33 1.89,0.93 2.33,1.45 6.57,3.52 9.26,4.51 3.87,1.43 5.19,1.71 8.35,1.74 2.77,0.02 2.91,0 3.89,-0.59 1.52,-0.9 2.72,-2.37 3.04,-3.67 0.7,-2.95 -1.61,-5.76 -6.07,-7.37 -9.83,-3.5 -12.33,-4.59 -15.48,-6.67 -2.97,-1.95 -6.62,-5.45 -8.18,-7.85 -4.46,-6.86 -5.69,-14.56 -3.47,-21.44 1.34,-4.09 3.7,-7.92 6.69,-10.91 1.8,-1.78 2.29,-2.13 4.93,-3.47 3.54,-1.78 5.26,-2.46 7.78,-3.02 6.84,-1.49 15.08,-0.06 24.96,4.31 4.59,2.05 9.98,4.97 10.37,5.65 0.29,0.5 0.24,0.62 -0.53,1.67 -0.79,1.06 -0.9,1.12 -1.32,0.83 -1.25,-0.81 -6.2,-3.39 -8.53,-4.44 -9.92,-4.49 -18.36,-5.94 -24.45,-4.16 -1.08,0.31 -3.08,1.1 -4.42,1.76 -6.57,3.19 -10.57,8.07 -11.85,14.38 -0.53,2.61 -0.35,7.85 0.37,10.93 0.44,1.89 0.7,2.48 1.83,4.18 1.67,2.53 5.52,6.38 8.11,8.09 2.51,1.65 5.83,3.23 8.6,4.09 4.53,1.41 5.1,1.61 6.62,2.31 5.54,2.53 8.81,7.06 8.02,11.09 -0.74,3.76 -3.5,6.53 -7.5,7.52 -1.74,0.44 -6.05,0.37 -8.36,-0.11 -4.57,-0.97 -9.41,-2.64 -11.87,-4.09 -0.64,-0.37 -1.23,-0.61 -1.32,-0.51 -0.09,0.09 -1.36,2.11 -2.86,4.47 -1.5,2.35 -2.86,4.51 -3.02,4.77 -0.31,0.46 -0.24,0.53 1.85,1.74 9.19,5.43 21.02,7.87 28.85,5.98 6.51,-1.56 11.5,-5.58 14.2,-11.46 1.34,-2.9 1.89,-5.19 2.02,-8.51 0.33,-7.98 -2.59,-14.29 -8.4,-18.14 -2.83,-1.89 -8.57,-4.57 -12.7,-5.92 -6.93,-2.29 -11.11,-4.95 -12.71,-8.09 -0.62,-1.19 -0.79,-3.43 -0.42,-5.28 0.97,-4.99 5.21,-7.74 11.32,-7.37 3.72,0.22 9.43,1.8 15.09,4.18l2.33 0.99 0.9 -1.58c0.83,-1.45 0.88,-1.59 0.53,-1.85 -0.86,-0.68 -6.71,-3.36 -8.84,-4.09 -4.6,-1.52 -9.5,-2.13 -13.3,-1.67 -3.94,0.46 -5.98,1.43 -8.57,4.07 -3.13,3.15 -4.22,7.61 -3.02,12.2 0.68,2.55 1.26,3.65 2.62,5.1 3.03,3.19 6.93,5.41 13.08,7.45 6.86,2.29 11.63,4.86 14.49,7.83 1.96,2.02 2.57,3.14 3.1,5.72 0.9,4.44 0.51,9.7 -1.01,13.15 -2.11,4.75 -6.7,8.2 -12.57,9.46 -2.09,0.46 -6.71,0.53 -9.11,0.13 -3.8,-0.61 -8.79,-2.2 -11.89,-3.78 -2.62,-1.32 -2.51,-1.04 -1.34,-3.17 0.66,-1.21 1.1,-1.78 1.25,-1.65 0.44,0.37 5.1,2.18 7.37,2.86 4.86,1.45 10.09,1.91 13.7,1.23 2.11,-0.42 2.86,-0.75 4.33,-1.98 2.46,-2.07 4.42,-5.02 5.17,-7.83 0.66,-2.48 0.22,-6.88 -0.9,-9.06 -0.59,-1.14 -2.88,-3.25 -5.15,-4.77 -3.34,-2.24 -7.65,-4.25 -13.41,-6.29 -7.3,-2.57 -11.94,-6.8 -13.65,-12.43 -0.44,-1.39 -0.51,-2.09 -0.49,-4.51 0.05,-5.63 1.63,-9.85 5,-13.22 3.63,-3.63 8.09,-5.1 14.64,-4.86 8.05,0.33 15.44,3.19 24.25,9.41 0.11,0.09 -1.06,2.31 -2.61,4.95 -1.54,2.66 -2.81,4.84 -2.81,4.86 -0.02,0.02 -2.04,-0.99 -4.53,-2.22 -4.51,-2.24 -8.66,-3.8 -11.56,-4.33 -0.75,-0.13 -2.53,-0.22 -3.96,-0.18 -2.44,0.09 -2.7,0.13 -3.82,0.77 -1.96,1.13 -2.57,2.95 -2.07,6.07 0.39,2.35 4.02,4.62 9.59,5.98 9.94,2.42 19.44,9.87 22.41,17.59 1.27,3.27 1.61,5.01 1.61,8.37 0.02,3.52 -0.29,5.46 -1.3,8.6 -3.08,9.43 -9.37,15.39 -18.25,17.28 -2.33,0.48 -8.35,0.7 -10.88,0.4zm0 0z" fill="#51aa1b" fill-rule="nonzero"/>
            <path d="M243.06 86.24c-6.6,-0.68 -12.71,-2.7 -17.15,-5.7 -3.48,-2.35 -6.53,-5.78 -8.31,-9.37 -1.82,-3.6 -2.72,-6.51 -3.39,-10.64 -0.37,-2.35 -0.4,-4.51 -0.37,-29.31 0.02,-14.73 0.09,-26.83 0.15,-26.9 0.07,-0.06 4.42,-0.04 9.67,0.05l9.57 0.15 0.13 13.22c0.09,7.28 0.2,19.07 0.24,26.19 0.09,12.54 0.11,13.02 0.55,14.52 0.66,2.13 1.52,3.56 3.03,4.99 2.35,2.26 5.46,3.36 10.16,3.61 7.23,0.37 12.29,-2.99 13.96,-9.28 0.66,-2.42 0.77,-6.51 0.9,-30.04l0.13 -23.48 11.85 0 -0.07 28.1 -0.06 28.08 -0.57 2.09c-2.37,8.58 -8.33,13.81 -17.52,15.39 -2.7,0.48 -7.96,0.62 -7.96,0.22 0,-0.11 -0.15,-0.22 -0.33,-0.22 -0.2,0 -0.26,0.13 -0.17,0.37 0.13,0.33 -0.13,0.35 -3.04,0.22 -13.57,-0.57 -21.42,-7.21 -22.41,-18.96 -0.13,-1.32 -0.29,-12.78 -0.37,-25.44l-0.13 -23.05 3.8 0 0 1.61c0,0.86 0.11,11.92 0.24,24.56 0.22,21.35 0.26,23.11 0.64,24.7 0.7,2.84 1.61,4.4 3.85,6.67 1.81,1.8 2.26,2.13 4.51,3.25 4.27,2.07 8.51,2.88 14.84,2.86 4.42,-0.02 7.19,-0.46 10.16,-1.63 6.09,-2.35 9.74,-7.72 10.58,-15.5 0.13,-1.12 0.24,-11.55 0.24,-24.3 0.02,-12.27 0.08,-23.09 0.15,-24.03l0.15 -1.7 -4.91 0 -0.02 8.54c-0.02,4.68 -0.09,16.19 -0.17,25.56 -0.15,16.95 -0.15,17.04 -0.66,18.58 -1.6,4.94 -5.3,8.29 -10.91,9.83 -1.54,0.42 -2.33,0.48 -6.27,0.48 -3.98,0.02 -4.72,-0.04 -6.48,-0.48 -6.46,-1.65 -10.33,-5.91 -11.11,-12.25 -0.11,-0.97 -0.31,-12.6 -0.44,-25.84 -0.13,-13.24 -0.26,-24.11 -0.29,-24.13 -0.02,-0.02 -2.84,-0.11 -6.27,-0.2l-6.2 -0.15 0 21.42c0,11.81 0.11,23 0.22,24.94 0.66,10.62 2.84,16.32 8.13,21.29 4.07,3.83 9,6.2 15,7.21 2.42,0.42 3.32,0.46 8.53,0.35 6.36,-0.11 8.14,-0.35 12.14,-1.69 9.52,-3.19 15.35,-10.03 16.97,-19.9 0.59,-3.69 0.62,-4.62 0.68,-25.18 0.09,-24.02 0.22,-31.25 0.62,-31.49 0.15,-0.09 0.9,-0.17 1.67,-0.17l1.39 0 -0.11 27.44c-0.09,26.48 -0.11,27.51 -0.55,29.95 -2,11.11 -8.57,19.02 -18.72,22.54 -5.47,1.87 -13.54,2.72 -19.92,2.07zm0 0z" fill="#51aa1b" fill-rule="nonzero"/>
            <path d="M303.28 86.32l-9.26 -0.06 -0.13 -2.49c-0.09,-1.34 -0.15,-19.79 -0.15,-40.99l0 -38.5 1.17 -0.09c0.62,-0.04 1.41,-0.04 1.72,0l0.57 0.09 0.13 15.96c0.09,8.8 0.15,24.85 0.15,35.69 0,10.84 0.07,21.2 0.15,23.02l0.13 3.34 11.52 0 0.11 -13.85c0.06,-7.63 0.15,-13.92 0.22,-13.99 0.06,-0.06 3.98,-0.19 8.66,-0.33 11.68,-0.29 12.69,-0.42 16.62,-2.42 6.6,-3.3 8.8,-6.07 10.8,-13.62 0.66,-2.44 0.69,-2.7 0.69,-7.26 0.02,-4.68 0.02,-4.75 -0.7,-7.37 -2.02,-7.46 -5.94,-11.81 -12.62,-14.09 -3.78,-1.28 -7.1,-1.61 -18.71,-1.78l-8.97 -0.13 0.13 8.11c0.07,4.46 0.18,11.32 0.24,15.22l0.13 7.13 8.95 -0.09c8.6,-0.09 8.99,-0.11 10.46,-0.59 1.98,-0.66 3.34,-1.96 4.07,-3.87 0.4,-1.1 0.46,-1.65 0.4,-3.19 -0.11,-2.11 -0.55,-3.19 -1.76,-4.31 -1.56,-1.47 -1.72,-1.52 -7.78,-1.58l-5.52 -0.07 -0.16 0.7c-0.06,0.37 -0.13,2.5 -0.13,4.73l0 4.05 -4.46 0 0.15 -6.54c0.09,-3.61 0.18,-6.57 0.22,-6.59 0.02,-0.04 3.56,0.02 7.85,0.13 8.31,0.22 9.21,0.35 10.97,1.45 1.12,0.7 2.53,2.37 3.19,3.76 1.36,2.88 1.17,7.48 -0.44,10.65 -0.55,1.1 -2.7,3.25 -3.8,3.82 -2.37,1.24 -7.39,1.65 -19.96,1.67l-6.18 0 -0.13 -9.28c-0.09,-5.1 -0.16,-13.61 -0.16,-18.91l0 -9.65 13.92 0.07 13.9 0.09 2.57 0.68c4.68,1.25 8.57,3.61 12.16,7.34 1.85,1.94 2.88,3.57 4.18,6.58 1.54,3.61 1.69,4.53 1.8,11 0.13,6.56 0,7.87 -1.17,11.44 -1.56,4.83 -4.16,8.77 -7.63,11.52 -2.31,1.82 -6.35,3.58 -10.16,4.42 -1.5,0.33 -8.25,0.73 -14.05,0.84l-2.86 0.04 -0.15 0.57c-0.07,0.33 -0.22,6.69 -0.31,14.14l-0.17 13.55 -0.57 -0.04c-0.31,-0.05 -4.73,-0.09 -9.83,-0.11zm0 0z" fill="#51aa1b" fill-rule="nonzero"/>
            <path d="M352.89 86.26l-4.53 -0.11 18.39 -40.86 18.36 -40.84 3.61 0.04 3.63 0.07 18.62 40.91c10.27,22.5 18.63,40.9 18.6,40.9 -0.02,0.02 -3.61,-0.04 -7.96,-0.13 -4.36,-0.09 -9.11,-0.15 -10.58,-0.18l-2.66 -0.02 -3.85 -8.07 -3.85 -8.09 -31.57 0 -1.98 4.35c-1.15,2.51 -2.16,4.44 -2.38,4.57 -0.24,0.11 -1.3,0.17 -2.37,0.15l-1.98 -0.06 2.92 -6.49 2.93 -6.49 14.05 -0.07c7.72,-0.04 16.03,0 18.47,0.07l4.42 0.15 3.72 8.07 3.74 8.05 6.56 0.07c6.18,0.04 6.55,0.02 6.44,-0.33 -0.07,-0.28 -31.44,-69.71 -33.13,-73.34 -0.27,-0.57 -0.38,-0.61 -1.76,-0.61l-1.45 0 -16.14 36.68c-8.86,20.17 -16.21,36.84 -16.32,37.06 -0.17,0.35 0.2,0.37 6.49,0.37l6.66 0 2.05 -4.51 2.04 -4.51 24.1 0 1.45 1.98c0.79,1.07 1.45,2.02 1.45,2.09 0,0.06 -5.48,0.11 -12.16,0.11l-12.14 0 -2.31 4.62 -2.31 4.61 -6.37 -0.04c-3.5,-0.02 -8.4,-0.11 -10.89,-0.18zm0 0z" fill="#51aa1b" fill-rule="nonzero"/>
            <path d="M442.98 65.32c-0.09,-11.63 -0.15,-30.17 -0.15,-41.24l0 -20.07 0.75 0c0.39,0 1.34,0.06 2.09,0.13l1.34 0.15 0 78 11.83 0 0.13 -6.09c0.07,-3.36 0.2,-10.09 0.27,-14.93l0.13 -8.84 5.12 -0.15c2.84,-0.09 5.24,-0.11 5.35,-0.02 0.11,0.06 3.85,6.75 8.31,14.84l8.11 14.71 4.18 0.16c2.31,0.06 5.43,0.11 6.95,0.06l2.77 -0.06 -6.27 -11.88c-3.43,-6.53 -6.29,-11.98 -6.33,-12.12 -0.13,-0.31 3.01,-1.47 3.28,-1.21 0.11,0.11 3.74,6.78 8.07,14.8l7.89 14.58 -11.15 0.06c-6.13,0.02 -11.26,0 -11.39,-0.04 -0.13,-0.05 -3.93,-6.89 -8.44,-15.18l-8.22 -15.09 -4.24 0 -0.13 4.66c-0.09,2.55 -0.16,8.31 -0.16,12.8 0,4.48 -0.06,9.28 -0.15,10.64l-0.13 2.46 -19.65 0 -0.13 -21.15zm0 0z" fill="#51aa1b" fill-rule="nonzero"/>
            <path d="M482.05 66.03l-7.26 -13.59 1.43 -0.13c2.46,-0.24 6.64,-1.19 9.04,-2 6.11,-2.13 8.95,-4.56 11.66,-9.96 1.82,-3.69 2.68,-8.22 2.24,-12.09 -0.42,-3.67 -1.48,-6.75 -3.63,-10.64 -1.32,-2.4 -2.53,-3.74 -4.59,-5.17 -3.01,-2.07 -6.11,-3.34 -10.53,-4.31 -2.46,-0.55 -2.66,-0.57 -14.16,-0.64l-11.65 -0.07 -0.07 36.02 -0.04 36 -1.32 0c-0.73,0 -1.32,-0.09 -1.32,-0.22 0,-0.11 -0.15,-0.22 -0.33,-0.22 -0.29,0 -0.33,-4.31 -0.33,-37.39l0 -37.39 14.19 0c13.57,0 14.29,0.02 16.31,0.46 2.37,0.5 5.96,1.72 7.63,2.55 3.45,1.72 7.26,4.95 9.15,7.74 3.12,4.64 4.8,10.75 4.55,16.63 -0.26,6.05 -2.33,11.11 -6.59,16.12 -2,2.35 -3.19,3.26 -6.31,4.75 -2.99,1.41 -4.75,2.02 -7.19,2.53l-1.8 0.37 6.27 12.05c3.43,6.62 6.24,12.09 6.24,12.14 0,0.06 -0.96,0.09 -2.15,0.06l-2.13 -0.02 -7.28 -13.59zm0 0z" fill="#51aa1b" fill-rule="nonzero"/>
            <path d="M301.88 62.83l0 -16.6 7.32 0c14.65,-0.02 18.69,-0.39 22.12,-2.02 1.91,-0.91 4.27,-3.26 5.23,-5.26 1.21,-2.46 1.47,-3.85 1.47,-7.79 -0.02,-3.96 -0.37,-5.83 -1.67,-8.46 -0.86,-1.78 -3.15,-4.11 -4.81,-4.91 -2.46,-1.17 -3.78,-1.3 -12.89,-1.41l-8.42 -0.11 0 -3.96 8.86 0.11c4.86,0.07 9.35,0.22 9.96,0.33 2.93,0.57 6.47,2.48 8.4,4.51 1.96,2.09 2.91,4 3.89,7.89 0.48,1.94 0.55,2.68 0.55,5.89 0,6.09 -0.72,8.73 -3.27,12.09 -1.74,2.29 -3.92,3.74 -7.54,5.02 -3.94,1.39 -8.25,1.8 -19.13,1.8l-6.56 0 0 13.04c0,7.19 -0.06,13.81 -0.13,14.73l-0.15 1.69 -3.23 0 0 -16.61zm0 0z" fill="#51aa1b" fill-rule="nonzero"/>
            <path d="M412.24 77.31c-0.37,-0.83 -5.78,-12.93 -12,-26.89 -6.24,-13.96 -11.37,-25.43 -11.39,-25.46 -0.02,-0.02 -3.28,7.32 -7.24,16.36 -3.96,9.04 -7.12,16.47 -7.06,16.54 0.24,0.24 20.85,0.33 20.76,0.09 -0.35,-0.94 -6.46,-13.68 -6.56,-13.68 -0.06,0.02 -1.21,2.4 -2.53,5.28l-2.4 5.28 -1.45 -0.02c-2.79,-0.04 -2.99,0.99 1.87,-9.98 2.37,-5.32 4.38,-9.74 4.44,-9.83 0.09,-0.09 2.94,5.89 6.37,13.26 3.43,7.39 6.2,13.48 6.14,13.52 -0.05,0.05 -7.57,0.07 -16.71,0.05l-16.6 -0.07 1.39 -3.19c0.77,-1.76 5.45,-12.31 10.4,-23.48l9 -20.28 5.96 13.24c3.28,7.3 9.67,21.53 14.2,31.63 4.55,10.09 8.15,18.41 8.05,18.43 -0.13,0.04 -0.22,0.22 -0.22,0.4 0,0.24 -0.4,0.31 -1.87,0.31l-1.89 0 -0.66 -1.48zm0 0z" fill="#51aa1b" fill-rule="nonzero"/>
            <path d="M459.09 46.15l0 -1.63 8.64 -0.09c7.72,-0.09 8.88,-0.15 11.15,-0.59 3.39,-0.64 5.68,-1.43 7.26,-2.46 1.65,-1.12 2.46,-2.15 3.43,-4.38 2,-4.62 1.87,-8.91 -0.42,-13.72 -0.75,-1.63 -1.15,-2.16 -2.18,-3.01 -2.62,-2.18 -5.83,-3.52 -9.3,-3.89 -1.12,-0.13 -4.75,-0.18 -8.4,-0.11l-6.44 0.13 0 3.85 7.1 0.11c5.85,0.07 7.3,0.15 8.4,0.46 3.23,0.94 5.65,2.69 6.69,4.82 1.65,3.43 0.79,8.46 -1.87,10.93 -1.23,1.14 -3.63,2.26 -6.44,3.04l-2.11 0.59 -7.69 -0.07c-4.22,-0.04 -7.7,-0.09 -7.72,-0.11 -0.02,-0.02 -0.09,-2.49 -0.18,-5.48l-0.15 -5.46 3.76 0 0 7.33 5.78 -0.13c6.46,-0.13 7.98,-0.33 10.03,-1.28 1.76,-0.81 2.95,-2.02 3.43,-3.5 0.75,-2.26 0.02,-4.38 -1.98,-5.76 -1.58,-1.1 -2.7,-1.23 -11.26,-1.39 -4.33,-0.06 -8.29,-0.17 -8.8,-0.24l-0.94 -0.11 0 -11.35 1.34 -0.15c2.78,-0.29 16.47,-0.15 18.67,0.2 8.73,1.32 14.8,7.21 15.9,15.44 0.48,3.65 -0.62,8.91 -2.51,12.07 -1.8,2.99 -5.28,5.21 -10.09,6.44 -3.72,0.94 -6.16,1.12 -15.06,1.12l-8.03 0 0 -1.63zm0 0z" fill="#51aa1b" fill-rule="nonzero"/>
            <path d="M27.23 112.22c-3.89,-0.4 -7.35,-2.93 -9.09,-6.59 -2.95,-6.19 0.2,-13.46 6.77,-15.72 6.11,-2.12 12.99,1.43 14.89,7.67 0.38,1.27 0.45,1.94 0.35,3.84 -0.09,2.13 -0.18,2.44 -1,4.18 -0.49,1.01 -1.32,2.32 -1.81,2.88 -2.46,2.77 -6.17,4.15 -10.1,3.75l-0 0zm0 0z" fill="#ffdf59" fill-rule="nonzero"/>
            <path d="M72.94 112.22c-7.18,-0.69 -12.07,-8.24 -9.74,-15.01 0.63,-1.78 1.5,-3.19 2.84,-4.53 5.25,-5.25 13.91,-4.29 18.02,2.01 2.17,3.35 2.37,8.17 0.47,11.52 -2.44,4.27 -6.7,6.5 -11.58,6.01zm0 0z" fill="#ffdf59" fill-rule="nonzero"/>
            <g clip-path="url(#a)">
                <g>
                    <path d="M-0.93 62.22l23.25 0 0 23 -23.25 0 0 -23zm0 0z" fill="#ffdf59" fill-rule="nonzero"/>
                </g>
            </g>
            <path d="M-0.09 61.92l22.77 0 0 23.51 -22.77 0 0 -23.51zm0 0z" fill="none"/>
            <path d="M26.96 73.72l-0.07 -11.5 23.36 0 0 23 -23.25 0 -0.04 -11.5zm0 0z" fill="#ffdf59" fill-rule="nonzero"/>
            <path d="M54.68 73.72l-0.06 -11.5 23.36 0 0 23 -23.25 0 -0.05 -11.5zm0 0z" fill="#ffdf59" fill-rule="nonzero"/>
            <g clip-path="url(#b)">
                <g>
                    <path d="M82.44 62.22l23.24 0 0 23 -23.24 0 0 -23zm0 0z" fill="#ffdf59" fill-rule="nonzero"/>
                </g>
            </g>
            <path d="M81.84 61.92l23.75 0 0 23.51 -23.75 0 0 -23.51zm0 0z" fill="none"/>
            <g clip-path="url(#c)">
                <g>
                    <path d="M-0.93 34.74l23.25 0 0 23 -23.25 0 0 -23zm0 0z" fill="#ffdf59" fill-rule="nonzero"/>
                </g>
            </g>
            <path d="M-0.09 34.61l22.77 0 0 23.52 -22.77 0 0 -23.52zm0 0z" fill="none"/>
            <path d="M27.01 34.74l23.25 0 0 23 -23.25 0 0 -23zm0 0z" fill="#ffdf59" fill-rule="nonzero"/>
            <path d="M54.72 34.74l23.25 0 0 23 -23.25 0 0 -23zm0 0z" fill="#ffdf59" fill-rule="nonzero"/>
            <g clip-path="url(#d)">
                <g>
                    <path d="M82.44 34.74l23.24 0 0 23 -23.24 0 0 -23zm0 0z" fill="#ffdf59" fill-rule="nonzero"/>
                </g>
            </g>
            <path d="M81.84 34.61l23.75 0 0 23.52 -23.75 0 0 -23.52zm0 0z" fill="none"/>
            <g clip-path="url(#e)">
                <g>
                    <path d="M-0.93 7.27l23.25 0 0 23 -23.25 0 0 -23zm0 0z" fill="#ffdf59" fill-rule="nonzero"/>
                </g>
            </g>
            <path d="M-0.09 7.31l22.77 0 0 23.52 -22.77 0 0 -23.52zm0 0z" fill="none"/>
            <g clip-path="url(#f)">
                <g>
                    <path d="M27.01 7.27l23.25 0 0 23 -23.25 0 0 -23zm0 0z" fill="#ffdf59" fill-rule="nonzero"/>
                </g>
            </g>
            <path d="M26.47 7.31l24.27 0 0 23.52 -24.27 0 0 -23.52zm0 0z" fill="none"/>
            <g clip-path="url(#g)">
                <g>
                    <path d="M54.68 18.77l0.05 -11.5 23.25 0 0 23 -23.36 0 0.06 -11.5zm0 0z" fill="#ffdf59" fill-rule="nonzero"/>
                </g>
            </g>
            <path d="M54.54 7.31l23.51 0 0 23.52 -23.51 0 0 -23.52zm0 0z" fill="none"/>
            <g clip-path="url(#h)">
                <g>
                    <path d="M82.44 7.27l23.24 0 0 23 -23.24 0 0 -23zm0 0z" fill="#ffdf59" fill-rule="nonzero"/>
                </g>
            </g>
            <path d="M81.84 7.31l23.75 0 0 23.52 -23.75 0 0 -23.52zm0 0z" fill="none"/>
            <path d="M491.46 118.96c-0.22,-0.24 -0.75,-2.18 -0.64,-2.26 0.02,-0.02 0.37,-0.2 0.79,-0.42 0.94,-0.49 2.53,-1.94 3.1,-2.89l0.46 -0.72 -2.57 -6.22c-1.41,-3.43 -2.6,-6.36 -2.66,-6.49 -0.09,-0.22 0.33,-0.28 1.65,-0.28 1.21,0 1.78,0.09 1.87,0.28 0.04,0.13 0.77,2.09 1.58,4.33 0.81,2.24 1.56,4.16 1.65,4.24 0.15,0.18 0.97,-1.93 2.51,-6.56l0.72 -2.2 3.04 0 -0.02 0.68c-0.05,0.77 -3.83,10.38 -5.23,13.26 -1.06,2.2 -2.84,4.22 -4.33,4.99 -1.21,0.59 -1.58,0.66 -1.91,0.24zm0 0z" fill="#a6a6a6" fill-rule="nonzero"/>
            <path d="M364.65 113.62c-0.72,-0.18 -2.15,-1.28 -2.68,-2.05 -0.59,-0.88 -0.69,-2.68 -0.22,-3.83 0.75,-1.74 3.1,-2.99 6.35,-3.34l1.28 -0.13 -0.33 -0.79c-0.18,-0.42 -0.33,-0.81 -0.33,-0.83 0,-0.04 -0.31,-0.18 -0.68,-0.31 -0.96,-0.33 -2.13,-0.31 -3.41,0.09 -1.27,0.39 -1.69,0.28 -2.04,-0.46 -0.37,-0.81 -0.13,-1.3 0.81,-1.69 3.35,-1.45 6.97,-0.79 8.33,1.56 0.53,0.91 0.57,1.21 0.75,5.28 0.09,2.4 0.18,4.81 0.18,5.39l0.02 1.06 -1.36 -0.07c-1.25,-0.07 -1.38,-0.11 -1.45,-0.57 -0.04,-0.29 -0.15,-0.48 -0.22,-0.44 -1.85,0.99 -3.76,1.43 -4.99,1.15zm3.19 -2.95c0.88,-0.46 1.39,-1.34 1.49,-2.53l0.09 -1.21 -1.06 0c-1.23,0.02 -2.55,0.44 -3.19,1.02 -0.55,0.5 -0.57,2.06 -0.02,2.55 0.64,0.59 1.74,0.66 2.69,0.17zm0 0z" fill="#a6a6a6" fill-rule="nonzero"/>
            <path d="M409.05 113.53c-1.06,-0.24 -1.98,-1.01 -2.35,-1.91 -0.22,-0.57 -0.37,-2.15 -0.48,-5.06l-0.15 -4.24 -1.94 0 0 -2.86 1.96 0 0.15 -1.1c0.18,-1.28 0.48,-1.54 1.91,-1.61l0.93 -0.04 0.07 1.39 0.06 1.37 3.5 0 0 2.86 -3.58 0 0.13 3.58c0.15,4.33 0.26,4.7 1.67,4.88 1.45,0.2 1.5,0.24 1.67,0.97 0.2,0.9 -0.2,1.49 -1.17,1.78 -0.93,0.24 -1.39,0.24 -2.38,0zm0 0z" fill="#a6a6a6" fill-rule="nonzero"/>
            <path d="M480.54 113.35c-1.92,-0.91 -2.91,-2.69 -2.53,-4.62 0.44,-2.44 2.55,-3.83 6.66,-4.33 1.21,-0.15 1.37,-0.59 0.53,-1.56 -0.66,-0.77 -2.22,-0.95 -3.96,-0.44 -0.66,0.2 -1.36,0.29 -1.54,0.22 -0.5,-0.17 -0.94,-1.38 -0.66,-1.82 0.74,-1.19 5.5,-1.69 7.21,-0.75 0.49,0.24 1.15,0.75 1.48,1.1 1.07,1.15 1.1,1.19 1.36,9.37l0.11 3.01 -1.32 0c-1.14,0 -1.34,-0.06 -1.54,-0.5l-0.22 -0.5 -1.08 0.53c-1.45,0.72 -3.36,0.85 -4.5,0.31zm4.02 -2.84c0.79,-0.48 1.36,-1.61 1.36,-2.64l0 -0.94 -1.08 0c-2.22,0 -3.54,0.86 -3.54,2.29 0,1.12 0.2,1.43 1.01,1.65 0.75,0.22 1.54,0.11 2.24,-0.35zm0 0z" fill="#a6a6a6" fill-rule="nonzero"/>
            <path d="M375.34 106.49l0.09 -7.04 2.97 0 0 0.66c0,0.37 0.02,0.66 0.06,0.66 0.02,0 0.64,-0.31 1.34,-0.66 2.66,-1.37 5.76,-0.55 6.97,1.8 0.53,1.04 0.84,4.33 0.86,8.82l0 2.79 -3.26 0 -0.09 -4.66c-0.11,-5.19 -0.24,-5.83 -1.5,-6.33 -0.84,-0.35 -2.31,-0.18 -2.91,0.37 -1.06,0.94 -1.17,1.47 -1.23,6.18l-0.09 4.44 -3.3 0 0.06 -7.04zm0 0z" fill="#a6a6a6" fill-rule="nonzero"/>
            <path d="M393.87 113.18c-1.16,-0.42 -2.88,-2.11 -3.45,-3.39 -0.7,-1.54 -0.77,-4.38 -0.16,-6.03 0.6,-1.58 1.7,-2.83 3.17,-3.61 0.99,-0.53 1.36,-0.59 3.21,-0.59 1.76,0 2.24,0.09 3.04,0.5 2.33,1.26 3.63,3.52 3.63,6.43 -0.02,4.22 -2.53,6.82 -6.73,6.97 -1.21,0.04 -2.11,-0.05 -2.7,-0.29zm4.67 -2.97c1.89,-1.72 1.89,-5.7 0,-7.44 -0.79,-0.74 -2.57,-0.88 -3.65,-0.28 -2.42,1.34 -2.51,6.51 -0.13,8.01 0.99,0.61 2.97,0.46 3.78,-0.29zm0 0z" fill="#a6a6a6" fill-rule="nonzero"/>
            <path d="M415.56 103.41l0 -10.12 3.08 0 0 3.74c0,2.07 0.02,3.74 0.06,3.74 0.02,0 0.64,-0.31 1.34,-0.66 2.7,-1.39 5.52,-0.62 6.77,1.85 0.48,0.97 0.81,4.44 0.84,9l0 2.57 -3.23 0 -0.16 -4.75c-0.09,-2.62 -0.24,-4.99 -0.35,-5.28 -0.46,-1.21 -2.55,-1.69 -3.8,-0.86 -1.21,0.79 -1.34,1.34 -1.43,6.33l-0.09 4.55 -3.03 0 0 -10.11zm0 0z" fill="#a6a6a6" fill-rule="nonzero"/>
            <path d="M433.87 113.18c-1.28,-0.46 -2.8,-1.87 -3.45,-3.21 -0.48,-0.97 -0.57,-1.43 -0.57,-3.04 0,-2.57 0.44,-3.96 1.69,-5.3 3.28,-3.5 8.18,-2.86 10,1.3 0.26,0.57 0.48,1.71 0.55,2.7l0.13 1.74 -4.66 0c-5.17,0 -5.02,-0.04 -4.22,1.5 0.96,1.89 2.55,2.35 5.91,1.78 1.61,-0.29 1.78,-0.2 1.87,1.01 0.04,0.75 -0.04,0.88 -0.7,1.3 -1.01,0.59 -5.14,0.75 -6.55,0.22zm4.99 -9.08c-0.08,-0.33 -0.28,-0.81 -0.42,-1.06 -0.28,-0.55 -1.54,-1.16 -2.33,-1.16 -1.1,0 -2.57,1.21 -3.04,2.48 -0.13,0.35 0.11,0.37 2.93,0.37l3.06 0 -0.2 -0.64zm0 0z" fill="#a6a6a6" fill-rule="nonzero"/>
            <path d="M444.36 106.49l0 -7.04 2.86 0 0 1.6 0.5 -0.44c0.75,-0.7 1.74,-1.12 2.97,-1.3l1.15 -0.15 0 3.32 -1.36 0.09c-1.12,0.09 -1.43,0.19 -1.85,0.68 -0.81,0.94 -0.96,1.98 -0.96,6.27l0 4 -3.3 0 0 -7.04zm0 0z" fill="#a6a6a6" fill-rule="nonzero"/>
            <path d="M469.78 111.83c-0.29,-0.94 -0.97,-3.06 -1.48,-4.69l-0.92 -2.97 -1.52 4.57 -1.54 4.56 -2.75 0 -0.99 -3.24c-0.55,-1.8 -1.48,-4.73 -2.02,-6.55 -0.57,-1.81 -1.08,-3.48 -1.14,-3.67 -0.11,-0.35 0.06,-0.39 1.54,-0.39 1.37,0 1.67,0.06 1.76,0.39 0.07,0.2 0.57,2.16 1.15,4.33 0.55,2.18 1.1,4.09 1.19,4.27 0.18,0.33 0.11,0.5 1.98,-5.41l1.12 -3.58 2.57 0 0.66 2.04c0.37,1.1 1.03,3.19 1.47,4.62 0.42,1.41 0.81,2.57 0.86,2.57 0.04,0 0.59,-1.89 1.25,-4.2 0.64,-2.33 1.32,-4.42 1.52,-4.66 0.31,-0.37 0.5,-0.42 1.74,-0.26 0.88,0.11 1.34,0.24 1.28,0.42 -0.04,0.13 -1.08,3.24 -2.27,6.91l-2.15 6.64 -2.72 0 -0.57 -1.69zm0 0z" fill="#a6a6a6" fill-rule="nonzero"/>
        </g>
    </g>
</svg>